<?xml version="1.0" encoding="utf-8"?>
<!-- Generator: Adobe Illustrator 26.0.0, SVG Export Plug-In . SVG Version: 6.00 Build 0)  -->
<svg version="1.1" id="Layer_1" xmlns="http://www.w3.org/2000/svg" xmlns:xlink="http://www.w3.org/1999/xlink" x="0px" y="0px"
	 viewBox="0 0 138 66" style="enable-background:new 0 0 138 66;" xml:space="preserve">
<style type="text/css">
	.st0{fill:#FFFFFF;}
</style>
<path class="st0" d="M37.7,0c-2,0-3.3,1.5-3.3,3.2v9.5c0,1.7,1.3,3.2,3.3,3.2c2.1,0,3.2-1.3,3.2-3.2v-1.2c0-0.4-0.2-0.4-1.2-0.4
	s-1.2,0-1.2,0.3v1.2c0,0.4-0.2,0.9-0.8,0.9c-0.7,0-0.9-0.7-0.9-1.3V3.7c0-0.6,0.2-1.3,0.9-1.3c0.6,0,0.8,0.6,0.8,1v1.2
	c0,0.3,0.4,0.3,1.1,0.3c1,0,1.2-0.1,1.2-0.3V3.2C41,1.6,39.9,0,37.7,0 M54.5,0c-1.9,0-3.3,1.3-3.3,3.3v9.4c0,1.9,1.2,3.3,3.3,3.3
	c2.2,0,3.3-1.4,3.3-3.3V3.3C57.8,1.3,56.4,0,54.5,0 M55.3,12.2c0,0.6-0.1,1.4-0.9,1.4s-0.9-0.7-0.9-1.4V3.7c0-0.6,0.2-1.4,0.9-1.4
	s0.9,0.7,0.9,1.4C55.3,3.7,55.3,12.2,55.3,12.2z M63,0c-2,0-3.3,1.5-3.3,3.2v9.5c0,1.7,1.3,3.2,3.3,3.2c2.1,0,3.2-1.3,3.2-3.2v-1.2
	c0-0.4-0.2-0.4-1.2-0.4s-1.2,0-1.2,0.3v1.2c0,0.4-0.2,0.9-0.8,0.9c-0.7,0-0.9-0.7-0.9-1.3V3.7c0-0.6,0.2-1.3,0.9-1.3
	c0.6,0,0.8,0.6,0.8,1v1.2c0,0.3,0.4,0.3,1.1,0.3c1,0,1.2-0.1,1.2-0.3V3.2C66.3,1.6,65.2,0,63,0 M81.8,13.7h-2c-0.2,0-0.5,0-0.6-0.1
	C79,13.5,79,13.1,79,12.8V0.4C79,0,78.9,0,77.7,0c-1,0-1.1,0-1.1,0.4V15c0,0.3,0,0.6,0.1,0.8c0.1,0.1,0.4,0.1,0.8,0.1h4.4
	c0.3,0,0.3-0.1,0.3-1.2C82.1,13.9,82.1,13.7,81.8,13.7 M71.2,0c-1.9,0-3.3,1.3-3.3,3.3v9.4c0,1.9,1.2,3.3,3.3,3.3
	c2.2,0,3.3-1.4,3.3-3.3V3.3C74.6,1.3,73.2,0,71.2,0 M72.1,12.2c0,0.6-0.1,1.4-0.9,1.4s-0.9-0.7-0.9-1.4V3.7c0-0.6,0.1-1.4,0.9-1.4
	s0.9,0.7,0.9,1.4C72.1,3.7,72.1,12.2,72.1,12.2z M86.6,0c-0.5,0-1.1,0-1.2,0.3c-0.8,5.5-1.3,9.5-2.2,15.4c0,0.2,0.8,0.2,1.1,0.2
	c0.7,0,1.2,0,1.3-0.2c0.1-0.9,0.2-1.8,0.3-3c0-0.2,0.2-0.2,0.7-0.2c0.4,0,0.6,0,0.7,0.2c0.2,1.3,0.3,2.2,0.5,3
	c0,0.3,0.5,0.3,1.1,0.3s1.3,0,1.3-0.2c-0.9-5.9-1.4-9.5-2.3-15.3C87.8,0,87.2,0,86.6,0 M86.6,10.3c-0.4,0-0.5,0-0.5-0.2
	c0.1-1.5,0.2-2.7,0.3-4.5c0-0.1,0-0.3,0.2-0.3c0.1,0,0.2,0.2,0.2,0.3c0.1,1.8,0.2,2.8,0.3,4.5C87.2,10.4,86.9,10.3,86.6,10.3
	 M96.6,0h-6c-0.3,0-0.3,0.2-0.3,1.1c0,1,0.1,1.1,0.4,1.1h1.5c0.2,0.2,0.2,0.5,0.2,0.8v12.6c0,0.2,0.2,0.2,1.2,0.2
	c1.1,0,1.3,0,1.3-0.2V3.1c0-0.3,0-0.7,0.2-0.8h1.7c0.2,0,0.3-0.1,0.3-1.2C96.9,0.2,96.9,0,96.6,0 M47.9,0c-1.2,0-1.3,0-1.3,0.5V6
	c0,0.3,0,0.5-0.2,0.6c-0.1,0-1,0.1-1.3,0C45,6.5,45,6.3,45,6V0.5C45,0.1,45,0,43.8,0s-1.3,0-1.3,0.5v15c0,0.4,0,0.5,1.3,0.5
	c1.2,0,1.2,0,1.2-0.5v-6c0-0.3,0-0.5,0.2-0.6c0.1,0,1-0.1,1.3,0c0.2,0,0.2,0.2,0.2,0.5v6c0,0.4,0,0.5,1.3,0.5c1.2,0,1.2,0,1.2-0.5
	v-15C49.1,0.1,49.1,0,47.9,0 M104.2,3.1c0-1.7-1.3-3.1-3.2-3.1c-1.6,0-3.2,1.1-3.2,3.7c0,3.4,4.3,6.2,4.3,8.2v1
	c0,0.4-0.2,0.8-0.8,0.8c-0.7,0-0.8-0.5-0.8-1.3v-0.8c0-0.4-0.1-0.4-1.2-0.4s-1.3,0-1.3,0.4v1.1c0,2.1,1.4,3.2,3.3,3.2
	c1.6,0,3.3-0.6,3.3-3.9c0-3.7-4.4-5.6-4.4-8.2c0-0.3,0-0.6,0.1-0.9c0-0.4,0.4-0.7,0.8-0.7s0.8,0.4,0.8,1V4c0,0.4,0.1,0.4,1.2,0.4
	s1.2,0,1.2-0.4L104.2,3.1 M68.2,66c-6.1,0-9.7-3.6-9.7-8.5V33.2c0-5.1,4.1-8.4,9.7-8.4c5.7,0,9.7,3.3,9.7,8.4v24.3
	C78,62.5,74.7,66,68.2,66 M70.8,34.5c0-1.6-0.1-3.5-2.5-3.5c-2.3,0-2.5,1.9-2.5,3.5v21.8c0,1.6,0.1,3.5,2.5,3.5
	c2.3,0,2.5-1.9,2.5-3.5V34.5z M101.2,46.2c-1.3-1.5-3.4-1.6-3.4-1.8s2-0.5,3.2-2.1c0.9-1,1.1-2.2,1.1-3.8v-5.1
	c0-2.4-0.8-4.9-2.7-6.6c-2-1.7-4.7-2.4-7.7-2.2c-2.4,0.1-4.9,0.2-7.4,0.3c0,0-0.6,0-1,0.5c-0.2,0.3-0.2,0.7-0.2,1.3v37.7
	c0,1.3,0.5,1.3,3.2,1.3c3.3,0,3.8,0,3.8-1.1V48.5c0-0.8,0.6-0.7,2.6-0.7c1.6,0,2.4,1.6,2.4,3.7v13.2c0,1,0.3,1,3.4,1
	c3.2,0,3.6,0,3.6-0.9V49.9C102.4,48.3,102.1,47.3,101.2,46.2 M95.1,34.6v4.2c0,0.6-0.1,1.7-0.9,2.5c-0.7,0.7-1.8,0.6-2.4,0.6
	c-0.5,0-0.9,0-1.2-0.2c-0.3-0.2-0.3-0.6-0.3-1.2V32c0-0.3,0.1-0.5,0.2-0.8c0.3-0.3,0.7-0.6,1.3-0.6c1.5,0,1.9,0.1,2.4,0.5
	C95.2,32,95.1,33.4,95.1,34.6 M109.2,23.1c-1.2,0.1-1.3,0.7-1.3,1.3v40.4c0,0.8,0.1,0.8,3.4,0.8c3.6,0,3.7-0.1,3.7-0.9v-41
	c0-0.7-0.1-1.1-1.6-1C112.1,22.9,110.5,23,109.2,23.1 M138.2,31.4v-3.8c0-4.3-3.7-7.6-9.4-7.2c-10.3,0.7-9.7,9.3-9.7,10.9
	c0,8.8,12.7,17.8,12.7,22.9c0,0.8-0.1,2.9-0.1,3.9c-0.1,1-0.6,2.2-2.4,2.2c-2,0-2.5-1.3-2.5-3.5v-2.9c0-1.1-0.3-1-3.5-1
	s-3.7,0-3.7,0.9v3.9c0,5.3,4.2,8.2,9.6,8.2c10.3,0,9.6-9.6,9.6-11.3c0-9.5-12.6-16.2-12.6-23.1c0-0.8,0.1-2.7,0.2-3.5
	c0.1-0.9,1.1-1.9,2.3-1.9c1.1,0,2.4,0.6,2.4,2.2v3c0,1,0.3,1,3.4,1S138.2,32.4,138.2,31.4 M7.1,47.4v17.3c0,1-0.5,0.9-3.9,0.9
	c-2.8,0-3.2,0.1-3.2-0.9V23.1c0-1.8-0.2-3.4,1.8-3.2c1.6,0.1,8.7,1.2,13.3,1.8c1.4,0.2,1.3,0.5,1.3,2.8v1.3c0,1.8-0.2,2.1-1,2.1
	C13.4,27.6,9,27,9,27c-0.8,0-1.1,0-1.4,0.2c-0.5,0.4-0.4,0.9-0.4,1.6v8.6c0,0.5-0.1,1.2,0.4,1.6C8,39.3,8.5,39.2,9,39.2h3.7
	c0.9,0,1,0.4,1,3.1c0,2.6,0,2.9-1,2.9H9.2c-0.7,0-1.4,0-1.6,0.2C6.9,45.8,7.1,46.6,7.1,47.4z M46.2,50.2c0,0.2-0.1,0.9-0.5,0.9
	s-0.5-0.6-0.5-0.9l-2.5-24.8c-0.1-0.6-0.2-0.9-1.3-1c-1.6-0.1-3-0.2-4.6-0.3c-1.1-0.1-1.2,0.3-1.2,0.8c2.2,14,4.7,30.4,6,39.7
	c0.1,1,0.8,1,3.8,1c2.8,0,3.5,0,3.6-0.9c1.5-10.3,4.3-24.8,6.6-38.8c0.1-0.5-0.1-0.8-1.1-0.8c-1.5,0-2.8-0.1-4.3-0.1
	c-1.2,0-1.4,0.3-1.5,1C48.7,26,46.2,50.2,46.2,50.2z M35.8,65.1c-2.6-15.1-4.1-26.2-6.6-41c-0.1-0.6-0.5-0.9-1.5-0.9
	C26.4,23,25,23,23.8,22.9c-1-0.1-1.5,0.3-1.6,0.8c-2.2,13.9-3.9,26.4-6.4,41.5c-0.1,0.5,2.2,0.5,3.2,0.5c2.1,0,3.6,0.1,3.6-0.6
	c0.3-3.4,0.7-5.9,1.1-9.1c0.1-0.6,0.7-0.5,2-0.5c1.1,0,1.8-0.1,1.9,0.5c0.5,3.2,0.6,5.7,1.2,9c0.1,0.8,1.4,0.7,3.3,0.7
	S35.9,65.7,35.8,65.1 M25.8,49.7h-0.2c-0.8,0-1.3,0.1-1.3-0.4c0.3-3.7,0.6-6.6,0.9-11.1c0-0.2,0.1-0.9,0.5-0.9s0.5,0.6,0.5,0.9
	c0.3,4.6,0.6,6.8,0.9,11.1C27.2,49.8,26.6,49.7,25.8,49.7"/>
</svg>
